<?xml version="1.0" encoding="utf-8"?>
<!-- Generator: Adobe Illustrator 24.0.0, SVG Export Plug-In . SVG Version: 6.00 Build 0)  -->
<svg version="1.1" id="Layer_3" xmlns="http://www.w3.org/2000/svg" xmlns:xlink="http://www.w3.org/1999/xlink" x="0px" y="0px"
	 viewBox="0 0 100 100" style="enable-background:new 0 0 100 100;" xml:space="preserve">
<style type="text/css">
	.st0{fill:#DB4105;}
	.st1{fill:#FFFFFF;}
</style>
<rect x="0.1" y="0" width="99.9" height="99.9"/>
<rect x="14.5" class="st0" width="85.5" height="85.5"/>
<g>
	<g>
		<path d="M18.4,46.1c0-14.9,10.2-23.4,21.3-23.4c5.8,0,10.6,2.7,13.7,5.9l-6.1,7.5c-2.2-1.9-4.4-3.3-7.3-3.3
			c-5.2,0-9.7,4.8-9.7,12.9c0,8.3,3.8,13,9.5,13c3.4,0,6.1-1.8,8-3.8l6.1,7.4c-3.7,4.4-8.8,6.6-14.5,6.6
			C28.2,68.9,18.4,61.3,18.4,46.1z"/>
		<path d="M60.1,23.6H76c9.2,0,16.7,2.3,16.7,11.1c0,3.8-2.2,8.2-5.6,9.6v0.3c4.2,1.2,7.6,4.5,7.6,10.4c0,9.2-7.9,13.1-17.4,13.1
			H60.1V23.6z M75.8,40.9c3.8,0,5.6-1.8,5.6-4.5c0-2.7-1.8-3.8-5.6-3.8h-3.9v8.3H75.8z M76.6,59c4.6,0,6.8-1.6,6.8-4.9
			c0-3.3-2.2-4.5-6.8-4.5h-4.8V59H76.6z"/>
	</g>
</g>
<g>
	<g>
		<path class="st1" d="M19.7,42.4C19.7,27.5,29.9,19,41.1,19c5.8,0,10.6,2.7,13.7,5.9l-6.1,7.5c-2.2-1.9-4.4-3.3-7.3-3.3
			c-5.2,0-9.7,4.8-9.7,12.9c0,8.3,3.8,13,9.5,13c3.4,0,6.1-1.8,8-3.8l6.1,7.4c-3.7,4.4-8.8,6.6-14.5,6.6
			C29.5,65.1,19.7,57.6,19.7,42.4z"/>
		<path class="st1" d="M61.5,19.8h15.9c9.2,0,16.7,2.3,16.7,11.1c0,3.8-2.2,8.2-5.6,9.6v0.3c4.2,1.2,7.6,4.5,7.6,10.4
			c0,9.2-7.9,13.1-17.4,13.1H61.5V19.8z M77.1,37.2c3.8,0,5.6-1.8,5.6-4.5s-1.8-3.8-5.6-3.8h-3.9v8.3H77.1z M77.9,55.2
			c4.6,0,6.8-1.6,6.8-4.9c0-3.3-2.2-4.5-6.8-4.5h-4.8v9.4C73.2,55.2,77.9,55.2,77.9,55.2z"/>
	</g>
</g>
</svg>
