<svg width="1440" height="160" viewBox="0 0 1440 160" fill="none" xmlns="http://www.w3.org/2000/svg">
<path d="M-57.1612 0L-58 74.5432C-52.7794 76.838 -47.3712 79.0003 -41.8415 81.0044C-7.04119 93.6405 32.5051 100.439 59.8222 99.2556C143.352 95.6276 144.743 11.6789 234.74 4.80745C368.986 -5.43989 521.31 169.5 641.373 159.594C739.174 151.531 744.659 26.6781 802.66 27.1055C838.63 27.3704 836.875 75.3808 898.065 83.0727C973.692 92.5808 1076.82 31.9129 1160.42 0H-57.1612Z" fill="black"/>
<path d="M1496.41 0H1278.4C1302.09 35.6478 1268.72 110.063 1325.64 117.498C1365.25 122.673 1431.2 93.1406 1497 55.6297L1496.41 0Z" fill="black"/>
</svg>
