<svg width="1440" height="144" viewBox="0 0 1440 144" fill="none" xmlns="http://www.w3.org/2000/svg">
<path d="M-57.1612 0L-58 66.8559C-52.7794 68.914 -47.3712 70.8533 -41.8415 72.6508C-7.04119 83.9838 32.5051 90.0815 59.8222 89.0199C143.352 85.766 144.743 10.4745 234.74 4.31168C368.986 -4.8789 521.31 152.02 641.373 143.136C739.174 135.904 744.659 23.9269 802.66 24.3102C838.63 24.5478 836.875 67.6071 898.065 74.5058C973.692 83.0333 1076.82 28.6219 1160.42 0H-57.1612Z" fill="#DB4105"/>
<path d="M1496.41 0H1278.4C1302.09 31.9716 1268.72 98.7125 1325.64 105.381C1365.25 110.023 1431.2 83.5354 1497 49.8928L1496.41 0Z" fill="#DB4105"/>
</svg>
